<svg xmlns="http://www.w3.org/2000/svg" xmlns:xlink="http://www.w3.org/1999/xlink" version="1.1" width="256" height="256" viewBox="0 0 256 256" xml:space="preserve">

<defs>
</defs>
<g style="stroke: none; stroke-width: 0; stroke-dasharray: none; stroke-linecap: butt; stroke-linejoin: miter; stroke-miterlimit: 10; fill: none; fill-rule: nonzero; opacity: 1;" transform="translate(1.4065934065934016 1.4065934065934016) scale(2.81 2.81)" >
	<path d="M 79.62 51.841 l -19.735 -4.21 l 10.978 -16.932 c 0.514 -0.792 0.404 -1.835 -0.264 -2.502 c -0.665 -0.666 -1.71 -0.778 -2.502 -0.264 L 51.166 38.911 l -4.21 -19.735 c -0.197 -0.923 -1.012 -1.583 -1.956 -1.583 s -1.759 0.66 -1.956 1.583 l -4.21 19.735 L 21.902 27.933 c -0.792 -0.514 -1.835 -0.404 -2.502 0.264 c -0.667 0.667 -0.777 1.71 -0.264 2.502 l 10.978 16.932 l -19.735 4.21 c -0.923 0.197 -1.583 1.013 -1.583 1.956 s 0.66 1.759 1.583 1.956 l 19.735 4.21 L 19.136 76.895 c -0.513 0.792 -0.403 1.835 0.264 2.502 c 0.386 0.387 0.898 0.586 1.415 0.586 c 0.376 0 0.754 -0.105 1.087 -0.322 l 16.931 -10.978 l 4.21 19.735 C 43.241 89.34 44.056 90 45 90 s 1.759 -0.66 1.956 -1.583 l 4.21 -19.735 L 68.098 79.66 c 0.333 0.217 0.711 0.322 1.087 0.322 c 0.517 0 1.029 -0.199 1.415 -0.586 c 0.668 -0.667 0.777 -1.71 0.264 -2.502 L 59.886 59.963 l 19.734 -4.21 c 0.923 -0.197 1.583 -1.013 1.583 -1.956 S 80.543 52.038 79.62 51.841 z M 45 29.179 l 3.831 17.959 L 45 50.969 l -3.831 -3.831 L 45 29.179 z M 38.341 49.966 l 3.831 3.831 l -3.831 3.831 l -4.608 -0.983 c -0.005 -0.001 -0.011 -0.003 -0.016 -0.003 l -13.334 -2.844 L 38.341 49.966 z M 45 78.414 l -3.831 -17.958 L 45 56.625 l 3.831 3.831 L 45 78.414 z M 56.285 56.641 c -0.008 0.001 -0.016 0.004 -0.024 0.005 l -4.602 0.982 l -3.831 -3.831 l 3.831 -3.831 l 17.958 3.831 L 56.285 56.641 z" style="stroke: none; stroke-width: 1; stroke-dasharray: none; stroke-linecap: butt; stroke-linejoin: miter; stroke-miterlimit: 10; fill: rgb(0,0,0); fill-rule: nonzero; opacity: 1;" transform=" matrix(1 0 0 1 0 0) " stroke-linecap="round" />
	<path d="M 50.057 16.136 c -0.582 0 -1.148 -0.254 -1.536 -0.72 l -6.577 -7.892 v 6.612 c 0 1.104 -0.896 2 -2 2 s -2 -0.896 -2 -2 V 2 c 0 -0.842 0.527 -1.594 1.319 -1.88 c 0.792 -0.285 1.679 -0.046 2.217 0.6 l 6.577 7.892 V 2 c 0 -1.104 0.896 -2 2 -2 s 2 0.896 2 2 v 12.136 c 0 0.842 -0.527 1.594 -1.319 1.88 C 50.515 16.097 50.285 16.136 50.057 16.136 z" style="stroke: none; stroke-width: 1; stroke-dasharray: none; stroke-linecap: butt; stroke-linejoin: miter; stroke-miterlimit: 10; fill: rgb(0,0,0); fill-rule: nonzero; opacity: 1;" transform=" matrix(1 0 0 1 0 0) " stroke-linecap="round" />
</g>
</svg>