<svg id="Layer_1" data-name="Layer 1" xmlns="http://www.w3.org/2000/svg" viewBox="0 0 64 64"><title>castle</title><path d="M59,58H51.58a4.09,4.09,0,0,1-4.05-3.54l-3.84-28.6A2.32,2.32,0,0,0,41.29,24H22.71a2.32,2.32,0,0,0-2.39,1.86l-3.84,28.6A4.09,4.09,0,0,1,12.42,58H5a1,1,0,0,0,0,2H59a1,1,0,0,0,0-2ZM36,46.92A1.08,1.08,0,0,1,34.92,48H29.08A1.08,1.08,0,0,1,28,46.92V40a4,4,0,0,1,8,0Z"/><path d="M16,16.62A3.38,3.38,0,0,0,19.38,20H44.62A3.38,3.38,0,0,0,48,16.62V7a3,3,0,0,0-6,0V8a2,2,0,0,1-4,0V6a2,2,0,0,0-4,0V8a2,2,0,0,1-4,0V6a2,2,0,0,0-4,0V8a2,2,0,0,1-4,0V7a3,3,0,0,0-6,0Z"/></svg>