<?xml version='1.0' encoding='utf-8'?>
<svg xmlns="http://www.w3.org/2000/svg" enable-background="new 0 0 850.39 793.7" version="1.1" viewBox="0 0 850.39 793.7">
	<path d="m435.82 349.83c0.053-1.649 1.303-3.603 2.779-4.342l29.968-15.007c1.475-0.739 2.469-2.676 2.208-4.306l-6.909-31.843c-0.442-1.59-2.152-2.977-3.798-3.084l-34.08-2.204c-1.647-0.107-3.605-1.398-4.351-2.869l-4.634-8.521c-0.83-1.426-0.821-3.754 0.021-5.173l17.209-29.016c0.842-1.419 0.641-3.596-0.446-4.837l-23.188-23.644c-1.22-1.111-3.399-1.365-4.841-0.564l-29.653 16.455c-1.443 0.801-3.778 0.756-5.19-0.098l-8.013-4.551c-1.457-0.774-2.698-2.757-2.757-4.406l-1.22-33.994c-0.059-1.649-1.4-3.388-2.979-3.865l-32.116-7.684c-1.624-0.294-3.591 0.654-4.372 2.108l-15.948 29.686c-0.781 1.454-2.102 2.63-2.936 2.614h-0.761c-4.628 0-10.717 0.459-10.717 0.459-1.645 0.124-3.762-0.883-4.703-2.239l-19.495-28.068c-0.941-1.355-3.012-2.103-4.602-1.663l-30.676 10.348c-1.531 0.616-2.678 2.466-2.549 4.111l2.615 33.362c0.129 1.645-0.9 3.723-2.286 4.618l-9.753 6.753c-1.325 0.983-3.656 1.272-5.181 0.641l-31.583-13.076c-1.525-0.631-3.675-0.144-4.779 1.082l-19.684 24.409c-0.965 1.338-0.939 3.508 0.059 4.822l20.14 26.526c0.998 1.314 1.247 3.614 0.554 5.112l-5.477 13.112c-0.579 1.545-2.382 3.049-4.006 3.342l-33.507 6.051c-1.624 0.293-3.164 1.866-3.424 3.496 0 0-3.278 20.605-3.278 32.905v0.066c1e-3 0.073 1.271 0.595 2.82 1.161l31.269 11.421c1.55 0.566 3.008 2.366 3.241 3.999l2.931 15.982c0.366 1.609-0.323 3.845-1.53 4.97l-24.766 23.065c-1.207 1.125-1.638 3.274-0.957 4.777l13.507 26.188c0.832 1.425 2.83 2.295 4.44 1.933l32.619-7.329c1.61-0.362 3.82 0.354 4.912 1.591l12.024 12.503c1.193 1.14 1.836 3.38 1.428 4.979l-8.302 32.548c-0.408 1.599 0.399 3.63 1.793 4.513l25.464 14.35c1.477 0.736 3.633 0.377 4.792-0.797l23.62-23.944c1.159-1.175 3.411-1.785 5.004-1.357l16.795 3.733c1.624 0.29 3.38 1.808 3.901 3.374l10.539 31.649c0.521 1.565 2.297 2.884 3.947 2.931 0 0 0.884 0.025 2.838 0.025 10.131 0 26.731-2.17 26.731-2.17 1.636-0.214 3.253-1.71 3.592-3.325l6.976-33.154c0.34-1.615 1.898-3.364 3.463-3.887l14.776-5.602c1.518-0.648 3.81-0.331 5.095 0.704l25.92 20.881c1.285 1.035 3.453 1.124 4.818 0.197l24.332-18.452c1.26-1.066 1.81-3.199 1.223-4.741l-12.134-31.867c-0.587-1.542-0.23-3.863 0.793-5.157l8.033-10.95c0.928-1.364 3.029-2.337 4.67-2.16l33.163 3.56c1.641 0.176 3.517-0.92 4.17-2.435l10.863-29.706c0.482-1.578-0.209-3.671-1.537-4.65l-27.522-20.311c-1.328-0.98-2.286-3.125-2.129-4.768l0.714-11.296zm-136.45 98.031c-55.465 0-100.43-44.963-100.43-100.43 0-55.466 44.963-100.43 100.43-100.43s100.43 44.963 100.43 100.43-44.963 100.43-100.43 100.43z" fill="#1E1B1B"/>
<ellipse cx="572" cy="322" rx="0" ry="2"/>
</svg>