<svg xmlns="http://www.w3.org/2000/svg" xmlns:xlink="http://www.w3.org/1999/xlink" version="1.1" width="256" height="256" viewBox="0 0 256 256" xml:space="preserve">

<defs>
</defs>
<g style="stroke: none; stroke-width: 0; stroke-dasharray: none; stroke-linecap: butt; stroke-linejoin: miter; stroke-miterlimit: 10; fill: none; fill-rule: nonzero; opacity: 1;" transform="translate(1.4065934065934016 1.4065934065934016) scale(2.81 2.81)" >
	<path d="M 83.493 41.785 c -4.529 -4.779 -10.649 -7.411 -17.231 -7.411 H 24.228 c -12.464 0 -23.064 9.482 -24.132 21.586 c -0.596 6.752 1.581 13.207 6.13 18.175 c 4.487 4.901 10.87 7.712 17.511 7.712 c 5.297 0 10.306 -1.707 14.488 -4.936 c 3.972 -3.068 9.573 -3.046 13.617 0.055 c 4.171 3.195 9.152 4.882 14.414 4.882 c 0.038 0 0.077 0 0.115 0 c 12.347 -0.057 22.93 -10.118 23.591 -22.429 C 90.318 52.823 88.02 46.561 83.493 41.785 z M 37.244 60.091 c 0 0.605 -0.49 1.095 -1.095 1.095 h -7.83 v 7.83 c 0 0.605 -0.49 1.095 -1.095 1.095 h -3.96 c -0.605 0 -1.095 -0.49 -1.095 -1.095 v -7.83 h -7.83 c -0.605 0 -1.095 -0.49 -1.095 -1.095 v -3.96 c 0 -0.605 0.49 -1.095 1.095 -1.095 h 7.83 v -7.83 c 0 -0.605 0.49 -1.095 1.095 -1.095 h 3.96 c 0.605 0 1.095 0.49 1.095 1.095 v 7.83 h 7.83 c 0.605 0 1.095 0.49 1.095 1.095 V 60.091 z M 55.098 61.851 c -2.06 0 -3.73 -1.67 -3.73 -3.73 s 1.67 -3.73 3.73 -3.73 s 3.73 1.67 3.73 3.73 S 57.158 61.851 55.098 61.851 z M 64.062 69.837 c -2.06 0 -3.73 -1.67 -3.73 -3.73 s 1.67 -3.73 3.73 -3.73 s 3.73 1.67 3.73 3.73 S 66.122 69.837 64.062 69.837 z M 64.062 53.864 c -2.06 0 -3.73 -1.67 -3.73 -3.73 s 1.67 -3.73 3.73 -3.73 s 3.73 1.67 3.73 3.73 S 66.122 53.864 64.062 53.864 z M 73.026 61.851 c -2.06 0 -3.73 -1.67 -3.73 -3.73 s 1.67 -3.73 3.73 -3.73 c 2.06 0 3.73 1.67 3.73 3.73 S 75.086 61.851 73.026 61.851 z" style="stroke: none; stroke-width: 1; stroke-dasharray: none; stroke-linecap: butt; stroke-linejoin: miter; stroke-miterlimit: 10; fill: rgb(0,0,0); fill-rule: nonzero; opacity: 1;" transform=" matrix(1 0 0 1 0 0) " stroke-linecap="round" />
	<path d="M 64.195 18.261 c -0.518 0 -1.034 -0.2 -1.426 -0.598 C 58.006 12.82 51.695 10.153 45 10.153 c -6.696 0 -13.006 2.667 -17.768 7.511 c -0.775 0.788 -2.04 0.798 -2.829 0.024 c -0.788 -0.775 -0.798 -2.041 -0.024 -2.829 C 29.9 9.244 37.223 6.153 45 6.153 c 7.776 0 15.099 3.092 20.621 8.706 c 0.774 0.788 0.764 2.054 -0.023 2.828 C 65.208 18.07 64.701 18.261 64.195 18.261 z" style="stroke: none; stroke-width: 1; stroke-dasharray: none; stroke-linecap: butt; stroke-linejoin: miter; stroke-miterlimit: 10; fill: rgb(0,0,0); fill-rule: nonzero; opacity: 1;" transform=" matrix(1 0 0 1 0 0) " stroke-linecap="round" />
	<path d="M 59.006 24.632 c -0.518 0 -1.034 -0.2 -1.426 -0.598 c -3.375 -3.431 -7.843 -5.32 -12.58 -5.32 c -4.738 0 -9.206 1.89 -12.58 5.32 c -0.773 0.788 -2.04 0.799 -2.828 0.023 c -0.788 -0.774 -0.798 -2.04 -0.023 -2.828 C 33.7 17.028 39.181 14.714 45 14.714 c 5.818 0 11.299 2.314 15.431 6.515 c 0.774 0.788 0.764 2.054 -0.023 2.828 C 60.018 24.441 59.512 24.632 59.006 24.632 z" style="stroke: none; stroke-width: 1; stroke-dasharray: none; stroke-linecap: butt; stroke-linejoin: miter; stroke-miterlimit: 10; fill: rgb(0,0,0); fill-rule: nonzero; opacity: 1;" transform=" matrix(1 0 0 1 0 0) " stroke-linecap="round" />
	<path d="M 36.182 31.002 c -0.506 0 -1.013 -0.191 -1.402 -0.574 c -0.788 -0.774 -0.798 -2.04 -0.023 -2.828 c 2.742 -2.789 6.38 -4.324 10.244 -4.324 c 3.863 0 7.501 1.536 10.244 4.324 c 0.774 0.787 0.765 2.054 -0.023 2.828 c -0.787 0.775 -2.053 0.765 -2.828 -0.023 c -1.985 -2.018 -4.61 -3.129 -7.392 -3.129 c -2.783 0 -5.408 1.111 -7.392 3.129 C 37.216 30.803 36.699 31.002 36.182 31.002 z" style="stroke: none; stroke-width: 1; stroke-dasharray: none; stroke-linecap: butt; stroke-linejoin: miter; stroke-miterlimit: 10; fill: rgb(0,0,0); fill-rule: nonzero; opacity: 1;" transform=" matrix(1 0 0 1 0 0) " stroke-linecap="round" />
</g>
</svg>