<svg xmlns="http://www.w3.org/2000/svg" xmlns:xlink="http://www.w3.org/1999/xlink" version="1.1" width="256" height="256" viewBox="0 0 256 256" xml:space="preserve">

<defs>
</defs>
<g style="stroke: none; stroke-width: 0; stroke-dasharray: none; stroke-linecap: butt; stroke-linejoin: miter; stroke-miterlimit: 10; fill: none; fill-rule: nonzero; opacity: 1;" transform="translate(1.4065934065934016 1.4065934065934016) scale(2.81 2.81)" >
	<path d="M 77.035 57.936 c 0 -11.006 -13.612 -20.253 -8.466 -38.181 c -5.443 2.784 -10.303 6.343 -12.616 13.28 C 57.186 18.673 52.019 7.923 41.843 0 c 1.733 12.653 -0.622 20.967 -8.138 32.039 c -3.594 -6.978 -7.492 -11.385 -14.481 -13.644 c 5.818 16.137 -6.259 27.873 -6.259 39.541 h -0.029 C 12.936 75.644 27.291 90 45 90 s 32.064 -14.356 32.064 -32.064 H 77.035 z M 60.985 75.622 c -4.27 4.271 -9.947 6.622 -15.985 6.622 c -6.039 0 -11.716 -2.352 -15.985 -6.622 c -4.27 -4.27 -6.622 -9.946 -6.622 -15.985 c 0 -6.038 2.352 -11.716 6.622 -15.985 c 8.814 -8.813 23.156 -8.814 31.971 0 c 4.271 4.27 6.622 9.947 6.622 15.985 C 67.607 65.676 65.256 71.353 60.985 75.622 z" style="stroke: none; stroke-width: 1; stroke-dasharray: none; stroke-linecap: butt; stroke-linejoin: miter; stroke-miterlimit: 10; fill: rgb(0,0,0); fill-rule: nonzero; opacity: 1;" transform=" matrix(1 0 0 1 0 0) " stroke-linecap="round" />
	<path d="M 58.157 46.479 c -3.628 -3.627 -8.393 -5.441 -13.157 -5.441 c -4.765 0 -9.53 1.814 -13.157 5.441 c -3.514 3.515 -5.45 8.188 -5.45 13.157 c 0 4.971 1.936 9.643 5.45 13.157 s 8.187 5.45 13.157 5.45 c 4.97 0 9.643 -1.936 13.157 -5.45 s 5.45 -8.187 5.45 -13.157 C 63.607 54.667 61.672 49.994 58.157 46.479 z M 54.729 67.376 c -0.395 0.491 -0.975 0.746 -1.559 0.746 c -0.44 0 -0.884 -0.145 -1.253 -0.442 l -8.172 -6.579 C 43.274 60.721 43 60.148 43 59.543 V 47.317 c 0 -1.104 0.896 -2 2 -2 s 2 0.896 2 2 v 11.269 l 7.426 5.979 C 55.286 65.257 55.423 66.516 54.729 67.376 z" style="stroke: none; stroke-width: 1; stroke-dasharray: none; stroke-linecap: butt; stroke-linejoin: miter; stroke-miterlimit: 10; fill: rgb(0,0,0); fill-rule: nonzero; opacity: 1;" transform=" matrix(1 0 0 1 0 0) " stroke-linecap="round" />
</g>
</svg>