<?xml version="1.0" encoding="iso-8859-1"?>
<!-- Generator: Adobe Illustrator 16.0.0, SVG Export Plug-In . SVG Version: 6.00 Build 0)  -->
<!DOCTYPE svg PUBLIC "-//W3C//DTD SVG 1.1//EN" "http://www.w3.org/Graphics/SVG/1.1/DTD/svg11.dtd">
<svg version="1.1" id="Capa_1" xmlns="http://www.w3.org/2000/svg" xmlns:xlink="http://www.w3.org/1999/xlink" x="0px" y="0px"
	 width="612px" height="612px" viewBox="0 0 612 612" style="enable-background:new 0 0 612 612;" xml:space="preserve">
<g>
	<g id="Grid">
		<g>
			<path d="M191.25,344.25H76.5c-42.266,0-76.5,34.233-76.5,76.5V535.5C0,577.767,34.234,612,76.5,612h114.75
				c42.266,0,76.5-34.233,76.5-76.5V420.75C267.75,378.483,233.516,344.25,191.25,344.25z M191.25,497.25
				c0,21.114-17.136,38.25-38.25,38.25h-38.25c-21.114,0-38.25-17.136-38.25-38.25V459c0-21.114,17.136-38.25,38.25-38.25H153
				c21.114,0,38.25,17.136,38.25,38.25V497.25z M535.5,0H420.75c-42.267,0-76.5,34.234-76.5,76.5v114.75
				c0,42.266,34.233,76.5,76.5,76.5H535.5c42.267,0,76.5-34.234,76.5-76.5V76.5C612,34.234,577.767,0,535.5,0z M535.5,153
				c0,21.114-17.136,38.25-38.25,38.25H459c-21.114,0-38.25-17.136-38.25-38.25v-38.25c0-21.114,17.136-38.25,38.25-38.25h38.25
				c21.114,0,38.25,17.136,38.25,38.25V153z M535.5,344.25H420.75c-42.267,0-76.5,34.233-76.5,76.5V535.5
				c0,42.267,34.233,76.5,76.5,76.5H535.5c42.267,0,76.5-34.233,76.5-76.5V420.75C612,378.483,577.767,344.25,535.5,344.25z
				 M535.5,497.25c0,21.114-17.136,38.25-38.25,38.25H459c-21.114,0-38.25-17.136-38.25-38.25V459
				c0-21.114,17.136-38.25,38.25-38.25h38.25c21.114,0,38.25,17.136,38.25,38.25V497.25z M191.25,0H76.5C34.234,0,0,34.234,0,76.5
				v114.75c0,42.266,34.234,76.5,76.5,76.5h114.75c42.266,0,76.5-34.234,76.5-76.5V76.5C267.75,34.234,233.516,0,191.25,0z
				 M191.25,153c0,21.114-17.136,38.25-38.25,38.25h-38.25c-21.114,0-38.25-17.136-38.25-38.25v-38.25
				c0-21.114,17.136-38.25,38.25-38.25H153c21.114,0,38.25,17.136,38.25,38.25V153z"/>
		</g>
	</g>
</g>
<g>
</g>
<g>
</g>
<g>
</g>
<g>
</g>
<g>
</g>
<g>
</g>
<g>
</g>
<g>
</g>
<g>
</g>
<g>
</g>
<g>
</g>
<g>
</g>
<g>
</g>
<g>
</g>
<g>
</g>
</svg>
