<svg xmlns="http://www.w3.org/2000/svg" xmlns:xlink="http://www.w3.org/1999/xlink" version="1.1" width="256" height="256" viewBox="0 0 256 256" xml:space="preserve">

<defs>
</defs>
<g style="stroke: none; stroke-width: 0; stroke-dasharray: none; stroke-linecap: butt; stroke-linejoin: miter; stroke-miterlimit: 10; fill: none; fill-rule: nonzero; opacity: 1;" transform="translate(1.4065934065934016 1.4065934065934016) scale(2.81 2.81)" >
	<path d="M 75.16 60.168 L 59.688 75.639 c -0.904 0.904 -2.369 0.904 -3.273 0 l -2.337 -2.337 c -0.904 -0.904 -0.904 -2.369 0 -3.273 L 69.55 54.558 c 0.904 -0.904 2.369 -0.904 3.273 0 l 2.337 2.337 C 76.064 57.798 76.064 59.264 75.16 60.168 z" style="stroke: none; stroke-width: 1; stroke-dasharray: none; stroke-linecap: butt; stroke-linejoin: miter; stroke-miterlimit: 10; fill: rgb(0,0,0); fill-rule: nonzero; opacity: 1;" transform=" matrix(1 0 0 1 0 0) " stroke-linecap="round" />
	<path d="M 14.84 60.168 l 15.472 15.472 c 0.904 0.904 2.369 0.904 3.273 0 l 2.337 -2.337 c 0.904 -0.904 0.904 -2.369 0 -3.273 L 20.45 54.558 c -0.904 -0.904 -2.369 -0.904 -3.273 0 l -2.337 2.337 C 13.936 57.798 13.936 59.264 14.84 60.168 z" style="stroke: none; stroke-width: 1; stroke-dasharray: none; stroke-linecap: butt; stroke-linejoin: miter; stroke-miterlimit: 10; fill: rgb(0,0,0); fill-rule: nonzero; opacity: 1;" transform=" matrix(1 0 0 1 0 0) " stroke-linecap="round" />
	<polygon points="63.24,60.86 63.24,60.86 67.06,57.05 58.82,48.14 54.51,52.13 " style="stroke: none; stroke-width: 1; stroke-dasharray: none; stroke-linecap: butt; stroke-linejoin: miter; stroke-miterlimit: 10; fill: rgb(0,0,0); fill-rule: nonzero; opacity: 1;" transform="  matrix(1 0 0 1 0 0) "/>
	<polygon points="51.54,54.88 47.21,58.88 56.57,67.54 60.38,63.72 " style="stroke: none; stroke-width: 1; stroke-dasharray: none; stroke-linecap: butt; stroke-linejoin: miter; stroke-miterlimit: 10; fill: rgb(0,0,0); fill-rule: nonzero; opacity: 1;" transform="  matrix(1 0 0 1 0 0) "/>
	<path d="M 72.675 3.283 L 22.938 57.046 l 3.818 3.818 c 0 0 0 0 0 0 l 45.689 -45.688 c 0.764 -0.765 2.095 -0.764 2.86 0 c 0.789 0.789 0.789 2.072 0 2.86 L 29.616 63.724 c 0 0 0 0 0 0 l 3.818 3.818 l 53.763 -49.737 L 90 0.479 L 72.675 3.283 z" style="stroke: none; stroke-width: 1; stroke-dasharray: none; stroke-linecap: butt; stroke-linejoin: miter; stroke-miterlimit: 10; fill: rgb(0,0,0); fill-rule: nonzero; opacity: 1;" transform=" matrix(1 0 0 1 0 0) " stroke-linecap="round" />
	<path d="M 14.695 18.035 c -0.789 -0.789 -0.789 -2.071 0 -2.86 c 0.764 -0.765 2.097 -0.765 2.861 0 L 38.35 35.969 l 4.607 -4.98 L 17.325 3.283 L 0 0.479 l 2.804 17.325 l 28.208 26.096 l 4.589 -4.96 L 14.695 18.035 z" style="stroke: none; stroke-width: 1; stroke-dasharray: none; stroke-linecap: butt; stroke-linejoin: miter; stroke-miterlimit: 10; fill: rgb(0,0,0); fill-rule: nonzero; opacity: 1;" transform=" matrix(1 0 0 1 0 0) " stroke-linecap="round" />
	<path d="M 15.334 66.662 L 1.636 80.36 c -0.904 0.904 -0.904 2.369 0 3.273 l 5.21 5.21 c 0.904 0.904 2.369 0.904 3.273 0 l 13.698 -13.698 L 15.334 66.662 z" style="stroke: none; stroke-width: 1; stroke-dasharray: none; stroke-linecap: butt; stroke-linejoin: miter; stroke-miterlimit: 10; fill: rgb(0,0,0); fill-rule: nonzero; opacity: 1;" transform=" matrix(1 0 0 1 0 0) " stroke-linecap="round" />
	<path d="M 88.364 80.36 L 74.666 66.662 l -8.483 8.483 L 79.88 88.843 c 0.904 0.904 2.369 0.904 3.273 0 l 5.21 -5.21 C 89.267 82.729 89.267 81.264 88.364 80.36 z" style="stroke: none; stroke-width: 1; stroke-dasharray: none; stroke-linecap: butt; stroke-linejoin: miter; stroke-miterlimit: 10; fill: rgb(0,0,0); fill-rule: nonzero; opacity: 1;" transform=" matrix(1 0 0 1 0 0) " stroke-linecap="round" />
</g>
</svg>