<?xml version="1.0" encoding="UTF-8" standalone="no"?>
<svg
   xmlns:dc="http://purl.org/dc/elements/1.1/"
   xmlns:cc="http://creativecommons.org/ns#"
   xmlns:rdf="http://www.w3.org/1999/02/22-rdf-syntax-ns#"
   xmlns:svg="http://www.w3.org/2000/svg"
   xmlns="http://www.w3.org/2000/svg"
   xmlns:sodipodi="http://sodipodi.sourceforge.net/DTD/sodipodi-0.dtd"
   xmlns:inkscape="http://www.inkscape.org/namespaces/inkscape"
   inkscape:export-ydpi="576"
   inkscape:export-xdpi="576"
   inkscape:export-filename="D:\Project juni #1\export\solid\png\3. children toy game console.png"
   width="64pt"
   height="64pt"
   viewBox="0 0 22.577778 22.577778"
   version="1.1"
   id="svg831"
   inkscape:version="1.0 (4035a4fb49, 2020-05-01)"
   sodipodi:docname="4. children toy water gun.svg">
  <defs
     id="defs825">
    <pattern
       id="EMFhbasepattern"
       patternUnits="userSpaceOnUse"
       width="6"
       height="6"
       x="0"
       y="0" />
    <pattern
       id="EMFhbasepattern-9"
       patternUnits="userSpaceOnUse"
       width="6"
       height="6"
       x="0"
       y="0" />
    <pattern
       id="EMFhbasepattern-0"
       patternUnits="userSpaceOnUse"
       width="6"
       height="6"
       x="0"
       y="0" />
    <pattern
       id="EMFhbasepattern-7"
       patternUnits="userSpaceOnUse"
       width="6"
       height="6"
       x="0"
       y="0" />
    <pattern
       id="EMFhbasepattern-2"
       patternUnits="userSpaceOnUse"
       width="6"
       height="6"
       x="0"
       y="0" />
    <pattern
       id="EMFhbasepattern-98"
       patternUnits="userSpaceOnUse"
       width="6"
       height="6"
       x="0"
       y="0" />
    <pattern
       id="EMFhbasepattern-6"
       patternUnits="userSpaceOnUse"
       width="6"
       height="6"
       x="0"
       y="0" />
    <pattern
       id="EMFhbasepattern-01"
       patternUnits="userSpaceOnUse"
       width="6"
       height="6"
       x="0"
       y="0" />
    <pattern
       id="EMFhbasepattern-07"
       patternUnits="userSpaceOnUse"
       width="6"
       height="6"
       x="0"
       y="0" />
    <pattern
       id="EMFhbasepattern-8"
       patternUnits="userSpaceOnUse"
       width="6"
       height="6"
       x="0"
       y="0" />
    <pattern
       id="EMFhbasepattern-4"
       patternUnits="userSpaceOnUse"
       width="6"
       height="6"
       x="0"
       y="0" />
    <pattern
       id="EMFhbasepattern-40"
       patternUnits="userSpaceOnUse"
       width="6"
       height="6"
       x="0"
       y="0" />
    <pattern
       id="EMFhbasepattern-08"
       patternUnits="userSpaceOnUse"
       width="6"
       height="6"
       x="0"
       y="0" />
    <pattern
       id="EMFhbasepattern-04"
       patternUnits="userSpaceOnUse"
       width="6"
       height="6"
       x="0"
       y="0" />
    <pattern
       id="EMFhbasepattern-014"
       patternUnits="userSpaceOnUse"
       width="6"
       height="6"
       x="0"
       y="0" />
    <pattern
       id="EMFhbasepattern-27"
       patternUnits="userSpaceOnUse"
       width="6"
       height="6"
       x="0"
       y="0" />
    <pattern
       id="EMFhbasepattern-09"
       patternUnits="userSpaceOnUse"
       width="6"
       height="6"
       x="0"
       y="0" />
    <pattern
       id="EMFhbasepattern-5"
       patternUnits="userSpaceOnUse"
       width="6"
       height="6"
       x="0"
       y="0" />
    <pattern
       id="EMFhbasepattern-018"
       patternUnits="userSpaceOnUse"
       width="6"
       height="6"
       x="0"
       y="0" />
  </defs>
  <sodipodi:namedview
     inkscape:lockguides="true"
     id="base"
     pagecolor="#ffffff"
     bordercolor="#666666"
     borderopacity="1.0"
     inkscape:pageopacity="0.0"
     inkscape:pageshadow="2"
     inkscape:zoom="6.2578125"
     inkscape:cx="42.666667"
     inkscape:cy="42.666667"
     inkscape:document-units="pt"
     inkscape:current-layer="layer1"
     showgrid="false"
     units="pt"
     inkscape:window-width="1366"
     inkscape:window-height="705"
     inkscape:window-x="-8"
     inkscape:window-y="-8"
     inkscape:window-maximized="1"
     inkscape:pagecheckerboard="true"
     inkscape:showpageshadow="false"
     inkscape:object-paths="true"
     inkscape:snap-intersection-paths="true"
     inkscape:snap-smooth-nodes="true"
     inkscape:snap-midpoints="true"
     showguides="true"
     inkscape:snap-bbox="true"
     inkscape:bbox-nodes="true"
     inkscape:snap-nodes="false"
     inkscape:snap-global="true"
     inkscape:document-rotation="0">
    <inkscape:grid
       type="xygrid"
       id="grid1378" />
    <sodipodi:guide
       position="0.97013831,21.607643"
       orientation="78.000048,0"
       id="guide1380"
       inkscape:locked="true" />
    <sodipodi:guide
       position="0.97013831,0.97013129"
       orientation="0,78.000005"
       id="guide1382"
       inkscape:locked="true" />
    <sodipodi:guide
       position="21.607639,0.97013129"
       orientation="-78.000048,0"
       id="guide1384"
       inkscape:locked="true" />
    <sodipodi:guide
       position="21.607639,21.607643"
       orientation="0,-78.000005"
       id="guide1386"
       inkscape:locked="true" />
  </sodipodi:namedview>
  <metadata
     id="metadata828">
    <rdf:RDF>
      <cc:Work
         rdf:about="">
        <dc:format>image/svg+xml</dc:format>
        <dc:type
           rdf:resource="http://purl.org/dc/dcmitype/StillImage" />
        <dc:title></dc:title>
      </cc:Work>
    </rdf:RDF>
  </metadata>
  <g
     inkscape:label="Icon"
     inkscape:groupmode="layer"
     id="layer1"
     transform="translate(0,-274.42223)">
    <path
       d="m 7.5079371,278.19369 c -1.0157275,0 -1.8872544,0.63096 -2.2469742,1.52016 0.2717624,-0.0722 0.5240198,-0.13231 0.6191558,-0.16376 0.4272571,-0.14108 0.9432866,-0.1207 1.3414015,0.03 l 0.6485152,0.17812 c -0.00167,-0.51706 -0.00234,-1.05504 0.00848,-1.56453 z m 1.0380183,0 -0.00718,3.54857 h 0.7268101 l -0.0072,-3.54857 z m 1.379893,0 c 0.02164,0.53615 0.00846,1.09357 0.00846,1.63695 0.7421886,0.17598 1.4107036,0.31621 1.9553396,0.0834 0.85392,-0.33922 1.564805,-0.39306 2.359845,-0.0457 0.327,0.14284 0.683711,0.1435 1.011269,0.003 l 0.686358,-0.2949 c -0.376535,-0.81822 -1.206137,-1.3825 -2.166074,-1.3825 z m -5.9025492,1.39359 c -0.1855021,-6.6e-4 -0.3360562,0.14985 -0.3353513,0.33536 V 280.41 l -1.0921704,0.30926 c -0.6944329,0.19663 -1.2550809,0.76389 -1.5410435,1.67936 -0.21151395,1.06381 -0.0943339,2.44442 1.1463226,2.76174 0.2627196,0.0625 0.5231045,0.0573 0.7913995,0.0457 v 0.29425 c 6.681e-4,0.18372 0.1496755,0.33237 0.3333937,0.33274 h 0.5845788 c -0.1222106,-0.36315 -0.1756309,-0.75364 -0.1631075,-1.14111 0.01005,-0.31153 0.064772,-0.62342 0.1631075,-0.91992 H 3.3258498 c -0.1837182,3.7e-4 -0.3326588,0.14902 -0.3333937,0.33274 v 0.43256 c -0.2582169,0.009 -0.4827319,0.0114 -0.636122,-0.0255 -0.7755859,-0.34138 -0.8453412,-1.31389 -0.6628691,-1.91358 0.2396372,-0.76716 0.6068964,-1.0997 1.0849918,-1.23506 l 0.9094911,-0.25837 v 0.21074 c -6.681e-4,0.18551 0.1498492,0.33606 0.3353513,0.33536 h 0.5774002 c -0.1168386,-0.35731 -0.167537,-0.74018 -0.1552775,-1.11958 0.010353,-0.32058 0.068326,-0.64044 0.1722404,-0.94407 z m 2.5001169,0.55 c -0.1009319,-0.003 -0.192547,0.0164 -0.4338678,0.047 -0.2525514,0.0834 -0.6693629,0.16377 -0.9975654,0.27272 -0.00354,0.0535 -0.00848,0.10668 -0.00848,0.16115 0,0.39662 0.098169,0.77068 0.268148,1.10195 h 2.5183859 v -1.26833 l -0.8559905,-0.23618 c -0.2797595,-0.053 -0.3896936,-0.076 -0.4906287,-0.0783 z m 9.6435939,0.0705 -0.642643,0.27729 c -0.494085,0.2126 -1.051026,0.20996 -1.543655,-0.005 -0.658931,-0.28792 -1.070271,-0.25504 -1.835942,0.0503 -0.737341,0.31676 -1.497324,0.16287 -2.2104399,-0.0101 v 1.20048 h 6.0030239 c 0.169875,-0.33125 0.267497,-0.70535 0.267497,-1.10195 0,-0.14007 -0.01486,-0.27674 -0.03784,-0.41039 z m -9.3545647,2.16869 c -1.3353987,0 -2.4263899,1.09065 -2.4263965,2.42639 6.6e-6,1.33572 1.0909945,2.42639 2.4263965,2.42639 H 17.295067 c 1.335402,0 2.423781,-1.09067 2.423783,-2.42639 -2e-6,-1.2767 -0.994969,-2.32736 -2.248934,-2.41791 v 0.32686 1.0452 c 0,1.14323 -0.933072,2.07604 -2.076036,2.07604 H 8.0748985 c -0.5655417,10e-6 -1.0308397,-0.46465 -1.0308397,-1.03019 0,-0.56556 0.465308,-1.03084 1.0308397,-1.03084 h 6.9412225 c 0.147317,0 0.216768,-0.0284 0.25184,-0.0521 0.03507,-0.0237 0.0572,-0.0527 0.08352,-0.13048 0.0526,-0.15575 0.05675,-0.48608 0.05676,-0.87752 v -0.33535 z m 9.2645287,0 v 0.33534 c -2e-6,0.37874 0.02653,0.7432 -0.09134,1.09218 -0.05893,0.1745 -0.16997,0.35106 -0.343178,0.46844 -0.173206,0.11741 -0.388715,0.16768 -0.626335,0.16768 H 8.0748985 c -0.204322,0 -0.3627497,0.1581 -0.3627497,0.36275 0,0.20462 0.158431,0.3621 0.3627497,0.3621 H 15.39388 c 0.781751,0 1.407946,-0.62563 1.407946,-1.40795 v -1.0452 -0.33534 z m 3.960913,1.08955 c 0.166999,0.39144 0.254392,0.82373 0.267501,1.25529 0.01483,0.48814 -0.06324,0.97996 -0.242053,1.41774 h 0.217911 c 0.729241,0 1.326392,-0.60113 1.326392,-1.33619 0,-0.73506 -0.597151,-1.33684 -1.326392,-1.33684 z m -8.024908,4.14491 c -0.172016,0.0133 -0.305955,0.15566 -0.308601,0.32817 v 0.015 H 11.69001 10.979514 7.0055496 c -0.1078771,0.57026 -0.2273812,1.0849 -0.3014223,1.64478 -0.1199419,0.90696 -0.1382612,1.77905 0.3797158,2.39182 6.681e-4,10e-4 0.00134,0.004 0.00201,0.005 0.8813412,1.00765 2.0902568,1.41386 3.2380189,1.15872 1.008359,-0.22415 1.72829,-1.1244 1.72829,-2.1576 0,-0.46499 -0.184116,-0.90882 -0.512809,-1.23766 l -0.559787,-0.56239 v -0.57479 h 0.717673 l 0.0072,0.3647 c 6.68e-4,0.18359 0.149802,0.33277 0.333394,0.3334 0.18455,7.3e-4 0.334713,-0.14884 0.335348,-0.3334 v -0.69745 -0.35035 c -0.003,-0.1927 -0.168005,-0.34315 -0.360141,-0.32817 z"
       style="color:#000000;font-style:normal;font-variant:normal;font-weight:normal;font-stretch:normal;font-size:medium;line-height:normal;font-family:sans-serif;font-variant-ligatures:normal;font-variant-position:normal;font-variant-caps:normal;font-variant-numeric:normal;font-variant-alternates:normal;font-variant-east-asian:normal;font-feature-settings:normal;font-variation-settings:normal;text-indent:0;text-align:start;text-decoration:none;text-decoration-line:none;text-decoration-style:solid;text-decoration-color:#000000;letter-spacing:normal;word-spacing:normal;text-transform:none;writing-mode:lr-tb;direction:ltr;text-orientation:mixed;dominant-baseline:auto;baseline-shift:baseline;text-anchor:start;white-space:normal;shape-padding:0;shape-margin:0;inline-size:0;clip-rule:nonzero;display:inline;overflow:visible;visibility:visible;isolation:auto;mix-blend-mode:normal;color-interpolation:sRGB;color-interpolation-filters:linearRGB;solid-color:#000000;solid-opacity:1;vector-effect:none;fill:#000000;fill-opacity:1;fill-rule:nonzero;stroke:none;stroke-width:0.529167;stroke-linecap:round;stroke-linejoin:round;stroke-miterlimit:4;stroke-dasharray:none;stroke-dashoffset:0;stroke-opacity:1;color-rendering:auto;image-rendering:auto;shape-rendering:auto;text-rendering:auto;enable-background:accumulate;stop-color:#000000"
       id="path1032" />
  </g>
</svg>
