<?xml version="1.0" encoding="iso-8859-1"?>
<!-- Uploaded to: SVG Repo, www.svgrepo.com, Generator: SVG Repo Mixer Tools -->
<svg fill="#000000" height="800px" width="800px" version="1.1" id="Layer_1" xmlns="http://www.w3.org/2000/svg" xmlns:xlink="http://www.w3.org/1999/xlink" 
	 viewBox="0 0 512 512" xml:space="preserve">
<g transform="translate(-1)">
	<g>
		<g>
			<path d="M214.366,273.067c0,18.167,16.452,30.353,34.133,33.374v-66.722C230.775,242.867,214.366,255.462,214.366,273.067z"/>
			<path d="M265.566,325.053v66.722c17.681-3.029,34.133-15.206,34.133-33.374C299.699,340.797,283.29,328.194,265.566,325.053z"/>
			<path d="M489.583,188.817L293.538,14.916c-20.557-19.797-52.745-19.797-73.114-0.171l-65.792,59.827V51.2h8.533
				c4.71,0,8.533-3.823,8.533-8.533V8.533c0-4.71-3.823-8.533-8.533-8.533h-102.4c-4.71,0-8.533,3.823-8.533,8.533v34.133
				c0,4.71,3.823,8.533,8.533,8.533h8.533v98.5l-44.843,38.895c-5.973,5.291-7.996,13.534-5.163,20.992
				c2.825,7.458,9.813,12.279,17.792,12.279h32.213V460.8h-8.533c-4.71,0-8.533,3.823-8.533,8.533v34.133
				c0,4.71,3.823,8.533,8.533,8.533h392.465c4.702,0,8.525-3.806,8.533-8.516l0.068-34.133c0-2.27-0.887-4.446-2.492-6.05
				c-1.604-1.604-3.772-2.5-6.042-2.5h-8.533V221.867h32.273c7.927,0,14.865-4.787,17.681-12.194
				C497.527,202.266,495.514,194.082,489.583,188.817z M257.033,460.8c-79.991,0-145.067-65.075-145.067-145.067
				s65.075-145.067,145.067-145.067s145.067,65.075,145.067,145.067S337.024,460.8,257.033,460.8z"/>
			<path d="M257.033,187.729c-70.579,0-128,57.421-128,128s57.421,128,128,128s128-57.421,128-128S327.612,187.729,257.033,187.729z
				 M265.566,408.981v9.148c0,4.719-3.823,8.533-8.533,8.533s-8.533-3.814-8.533-8.533v-8.977c-9.54-0.956-18.227-3.499-25.6-7.45
				v7.893c0,4.719-3.823,8.533-8.533,8.533s-8.533-3.814-8.533-8.533v-51.2c0-4.71,3.823-8.533,8.533-8.533s8.533,3.823,8.533,8.533
				v22.272c5.803,5.922,14.891,9.89,25.6,11.273v-68.292c-26.01-3.413-51.2-22.076-51.2-50.586c0-28.501,25.19-47.164,51.2-50.577
				v-9.156c0-4.71,3.823-8.533,8.533-8.533s8.533,3.823,8.533,8.533v8.969c9.626,0.922,18.261,3.43,25.6,7.373v-7.808
				c0-4.71,3.823-8.533,8.533-8.533s8.533,3.823,8.533,8.533v51.2c0,4.719-3.823,8.533-8.533,8.533s-8.533-3.814-8.533-8.533
				v-22.289c-5.888-6.093-14.729-9.967-25.6-11.281v68.326c26.01,3.413,51.2,22.076,51.2,50.577
				C316.766,386.906,291.575,405.568,265.566,408.981z"/>
		</g>
	</g>
</g>
</svg>