<?xml version="1.0" encoding="iso-8859-1"?>
<!-- Uploaded to: SVG Repo, www.svgrepo.com, Generator: SVG Repo Mixer Tools -->
<svg fill="#000000" height="800px" width="800px" version="1.1" id="Layer_1" xmlns="http://www.w3.org/2000/svg" xmlns:xlink="http://www.w3.org/1999/xlink" 
	 viewBox="0 0 512.016 512.016" xml:space="preserve">
<g>
	<g>
		<g>
			<path d="M512.01,320.235v-0.226c0-0.018-0.003-0.035-0.003-0.052c-0.003-0.681-0.034-1.367-0.104-2.058
				c-0.009-0.089-0.023-0.177-0.033-0.266c-0.06-0.526-0.141-1.054-0.242-1.584c-0.031-0.163-0.056-0.327-0.09-0.488
				c-0.002-0.007-0.003-0.015-0.004-0.022l-64-298.667c-2.108-9.836-10.8-16.863-20.86-16.863H85.341
				c-10.059,0-18.752,7.027-20.86,16.863l-64,298.667c-0.006,0.027-0.009,0.053-0.015,0.08c-0.021,0.098-0.036,0.198-0.055,0.297
				c-0.123,0.626-0.219,1.25-0.286,1.871c-0.002,0.019-0.005,0.037-0.007,0.055c-0.096,0.926-0.133,1.844-0.109,2.751v170.082
				c0,11.782,9.551,21.333,21.333,21.333h469.333c11.782,0,21.333-9.551,21.333-21.333v-170.17
				C512.012,320.415,512.01,320.324,512.01,320.235z M102.588,42.675h306.841l54.857,256H47.731L102.588,42.675z M469.344,469.342
				H42.677v-128h426.667V469.342z"/>
			<path d="M384.008,192.008h-256c-11.782,0-21.333,9.551-21.333,21.333c0,11.782,9.551,21.333,21.333,21.333h256
				c11.782,0,21.333-9.551,21.333-21.333C405.342,201.559,395.79,192.008,384.008,192.008z"/>
			<path d="M170.675,128.008h170.667c11.782,0,21.333-9.551,21.333-21.333c0-11.782-9.551-21.333-21.333-21.333H170.675
				c-11.782,0-21.333,9.551-21.333,21.333C149.341,118.457,158.893,128.008,170.675,128.008z"/>
			<path d="M149.341,426.675h213.333c11.782,0,21.333-9.551,21.333-21.333c0-11.782-9.551-21.333-21.333-21.333H149.341
				c-11.782,0-21.333,9.551-21.333,21.333C128.008,417.124,137.559,426.675,149.341,426.675z"/>
		</g>
	</g>
</g>
</svg>