<?xml version="1.0" ?><svg data-name="Layer 2" id="Layer_2" viewBox="0 0 32 32" xmlns="http://www.w3.org/2000/svg"><title/><path d="M28,9.5H16.5V4a.5.5,0,0,0-.5-.5H10a.5.5,0,0,0-.5.5V9.5H4a.5.5,0,0,0-.5.5v6a.5.5,0,0,0,.5.5H9.5V28a.5.5,0,0,0,.5.5h6a.5.5,0,0,0,.5-.5V16.5H28a.5.5,0,0,0,.5-.5V10A.5.5,0,0,0,28,9.5Zm-12.5,12h-5v-5h5Zm-5-6v-5h5v5Zm0-11h5v5h-5Zm-6,6h5v5h-5Zm11,17h-5v-5h5Zm1-17h5v5h-5Zm11,5h-5v-5h5Z"/><path d="M12.1165,23.9906h1.1447l-1.3533,2.183a.3459.3459,0,0,0,.2943.5291h1.6414a.3467.3467,0,0,0,0-.6934H12.8251l1.3534-2.183a.3459.3459,0,0,0-.2943-.5291H12.1165a.3467.3467,0,1,0,0,.6934Z"/><path d="M13.3124,5.2519,13.3051,5.24a.3291.3291,0,0,0-.0372-.0612.3339.3339,0,0,0-.0341-.0468.3388.3388,0,0,0-.049-.0355.33.33,0,0,0-.0584-.0356l-.0127-.0077a.3053.3053,0,0,0-.0465-.007A.3229.3229,0,0,0,13,5.0362a.3315.3315,0,0,0-.0674.01.3052.3052,0,0,0-.0462.007l-.0125.0077a.3231.3231,0,0,0-.0588.0358.3348.3348,0,0,0-.0487.0353.3308.3308,0,0,0-.0339.0466.3225.3225,0,0,0-.0375.0614l-.0072.0118L11.5737,8.3137a.3323.3323,0,1,0,.6245.2271l.2958-.8127h1.0127l.2957.8127a.3322.3322,0,1,0,.6244-.2271Zm-.5766,1.8116L13,6.3369l.2644.7266Z"/></svg>