<svg xmlns="http://www.w3.org/2000/svg" xmlns:xlink="http://www.w3.org/1999/xlink" version="1.1" width="256" height="256" viewBox="0 0 256 256" xml:space="preserve">

<defs>
</defs>
<g style="stroke: none; stroke-width: 0; stroke-dasharray: none; stroke-linecap: butt; stroke-linejoin: miter; stroke-miterlimit: 10; fill: none; fill-rule: nonzero; opacity: 1;" transform="translate(1.4065934065934016 1.4065934065934016) scale(2.81 2.81)" >
	<path d="M 35.759 32.352 c 0.034 0.017 0.07 0.029 0.104 0.046 c 0.22 0.109 0.444 0.209 0.668 0.309 c 0.256 0.115 0.513 0.226 0.774 0.331 c 0.16 0.064 0.322 0.122 0.483 0.183 c 0.128 0.047 0.257 0.092 0.387 0.136 c 0.318 0.111 0.634 0.224 0.959 0.32 c 0.047 0.014 0.093 0.034 0.14 0.048 l 0.139 0.04 c 0.217 0.061 0.441 0.101 0.661 0.155 c 0.324 0.079 0.644 0.164 0.974 0.228 c 0.281 0.054 0.565 0.087 0.848 0.13 c 0.389 0.059 0.776 0.124 1.172 0.16 l 0.192 0.018 c 0.311 0.026 0.626 0.027 0.94 0.039 c 0.268 0.01 0.53 0.041 0.8 0.041 c 0.279 0 0.55 -0.031 0.826 -0.042 c 0.306 -0.012 0.613 -0.013 0.918 -0.038 l 0.186 -0.018 c 0.399 -0.037 0.789 -0.102 1.181 -0.162 c 0.281 -0.042 0.562 -0.075 0.841 -0.129 c 0.328 -0.064 0.648 -0.148 0.97 -0.227 c 0.223 -0.054 0.449 -0.095 0.669 -0.156 l 0.167 -0.048 c 0.046 -0.013 0.09 -0.032 0.135 -0.046 c 0.316 -0.094 0.624 -0.205 0.933 -0.313 c 0.12 -0.041 0.239 -0.082 0.358 -0.125 c 0.182 -0.067 0.363 -0.133 0.543 -0.205 c 0.251 -0.101 0.498 -0.21 0.745 -0.321 c 0.196 -0.088 0.392 -0.177 0.586 -0.271 c 0.061 -0.03 0.125 -0.052 0.185 -0.082 l 9.742 38.008 c -9.646 4.972 -28.32 4.973 -37.968 0 L 35.759 32.352 z" style="stroke: none; stroke-width: 1; stroke-dasharray: none; stroke-linecap: butt; stroke-linejoin: miter; stroke-miterlimit: 10; fill: rgb(0,0,0); fill-rule: nonzero; opacity: 1;" transform=" matrix(1 0 0 1 0 0) " stroke-linecap="round" />
	<path d="M 45 0 c 7.613 0 13.807 6.193 13.807 13.806 c 0 4.145 -1.845 7.86 -4.747 10.393 c -0.226 0.197 -0.461 0.379 -0.697 0.559 c -0.072 0.055 -0.14 0.114 -0.213 0.167 c -0.032 0.024 -0.063 0.048 -0.096 0.072 c -0.203 0.146 -0.413 0.279 -0.623 0.413 c -0.179 0.115 -0.357 0.23 -0.541 0.336 c -0.199 0.115 -0.401 0.222 -0.605 0.327 c -0.223 0.114 -0.448 0.222 -0.677 0.324 c -0.186 0.083 -0.372 0.167 -0.561 0.242 c -0.294 0.116 -0.593 0.218 -0.894 0.313 c -0.114 0.036 -0.227 0.079 -0.342 0.112 c -0.156 0.045 -0.316 0.083 -0.475 0.122 c -0.249 0.063 -0.498 0.125 -0.75 0.173 c -0.08 0.015 -0.162 0.023 -0.242 0.037 c -0.254 0.043 -0.509 0.083 -0.766 0.112 c -0.058 0.007 -0.115 0.018 -0.173 0.024 l -0.169 0.016 c -0.139 0.012 -0.28 0.013 -0.42 0.021 c -0.546 0.032 -1.096 0.032 -1.64 0 c -0.137 -0.008 -0.276 -0.009 -0.412 -0.021 l -0.168 -0.016 c -0.069 -0.007 -0.137 -0.02 -0.206 -0.028 c -0.242 -0.028 -0.483 -0.065 -0.723 -0.106 c -0.085 -0.015 -0.172 -0.023 -0.256 -0.039 c -0.245 -0.047 -0.487 -0.108 -0.729 -0.168 c -0.008 -0.002 -0.015 -0.004 -0.023 -0.005 c -0.158 -0.04 -0.317 -0.077 -0.473 -0.122 c -0.115 -0.033 -0.226 -0.075 -0.34 -0.111 c -0.302 -0.096 -0.602 -0.198 -0.898 -0.315 c -0.188 -0.075 -0.372 -0.157 -0.557 -0.24 c -0.23 -0.103 -0.458 -0.212 -0.682 -0.327 c -0.202 -0.104 -0.402 -0.21 -0.599 -0.325 c -0.186 -0.108 -0.367 -0.224 -0.548 -0.341 c -0.208 -0.134 -0.416 -0.265 -0.617 -0.41 c -0.031 -0.022 -0.061 -0.046 -0.091 -0.068 c -0.08 -0.059 -0.155 -0.123 -0.234 -0.184 c -0.23 -0.177 -0.46 -0.354 -0.68 -0.546 c -2.902 -2.533 -4.748 -6.248 -4.748 -10.394 C 31.194 6.193 37.387 0 45 0 z" style="stroke: none; stroke-width: 1; stroke-dasharray: none; stroke-linecap: butt; stroke-linejoin: miter; stroke-miterlimit: 10; fill: rgb(0,0,0); fill-rule: nonzero; opacity: 1;" transform=" matrix(1 0 0 1 0 0) " stroke-linecap="round" />
	<path d="M 45.001 90 c -11.948 0 -21.372 -3.721 -21.83 -8.537 l 1.102 -4.299 c 5.705 2.515 13.212 3.78 20.728 3.78 c 7.516 -0.001 15.023 -1.264 20.728 -3.78 l 1.102 4.299 C 66.372 86.279 56.949 90 45.001 90 z" style="stroke: none; stroke-width: 1; stroke-dasharray: none; stroke-linecap: butt; stroke-linejoin: miter; stroke-miterlimit: 10; fill: rgb(0,0,0); fill-rule: nonzero; opacity: 1;" transform=" matrix(1 0 0 1 0 0) " stroke-linecap="round" />
</g>
</svg>