<svg class="svg-icon" style="width: 1.0625em; height: 1em;vertical-align: middle;fill: currentColor;overflow: hidden;" viewBox="0 0 1088 1024" version="1.1" xmlns="http://www.w3.org/2000/svg"><path d="M992 64 768 64c-52.8 0-126.546 30.546-163.882 67.882L227.882 508.118c-37.334 37.334-37.334 98.428 0 135.764l280.236 280.234c37.334 37.336 98.428 37.336 135.764 0l376.234-376.234C1057.454 510.546 1088 436.8 1088 384L1088 160C1088 107.2 1044.8 64 992 64zM864 384c-53.02 0-96-42.98-96-96s42.98-96 96-96 96 42.98 96 96S917.02 384 864 384zM86.626 598.626 429.004 941.004C392.74 960.164 346.542 954.542 316.118 924.116L35.882 643.882C-1.452 606.546-1.452 545.452 35.882 508.118L412.118 131.882C449.454 94.546 523.2 64 576 64L86.626 553.372C74.182 565.818 74.182 586.18 86.626 598.626Z"  /></svg>