<?xml version="1.0" encoding="iso-8859-1"?>
<!-- Uploaded to: SVG Repo, www.svgrepo.com, Generator: SVG Repo Mixer Tools -->
<svg fill="#000000" height="800px" width="800px" version="1.1" id="Layer_1" xmlns="http://www.w3.org/2000/svg" xmlns:xlink="http://www.w3.org/1999/xlink" 
	 viewBox="0 0 512 512" xml:space="preserve">
<g>
	<g>
		<path d="M492.312,19.663c-26.187-26.186-68.796-26.187-94.983,0L254.853,162.138l-11.872-11.872
			c-6.556-6.557-17.188-6.557-23.746,0c-6.557,6.557-6.557,17.188,0,23.746c17.213,17.213,30.278,30.278,47.492,47.492
			l-47.492,47.492l-83.11-83.11c-6.556-6.557-17.188-6.556-23.746,0l-36.281,36.281c-34.14,34.14-58.048,77.022-69.141,124.012
			c-11.093,46.99-8.886,96.037,6.381,141.84c1.671,5.013,5.606,8.947,10.62,10.619c44.245,14.747,93.28,17.845,141.84,6.382
			c46.99-11.093,89.872-35.001,124.012-69.141l36.281-36.281c6.557-6.557,6.557-17.188,0-23.746l-83.11-83.11l47.492-47.492
			c4.897,4.897,42.6,42.6,47.492,47.491c6.556,6.557,17.188,6.559,23.746,0c6.557-6.557,6.557-17.188,0-23.746l-11.873-11.873
			l35.616-35.615c0.001-0.001,0.002-0.002,0.003-0.003c0.001-0.001,0.002-0.002,0.003-0.005l106.853-106.852
			C518.559,88.399,518.565,45.914,492.312,19.663z M326.091,233.375l-47.492-47.491l23.746-23.747l47.492,47.492L326.091,233.375z"
			/>
	</g>
</g>
</svg>